<svg width="200" height="200" viewBox="0 0 200 200" fill="none" xmlns="http://www.w3.org/2000/svg">
<circle cx="100" cy="100" r="99.5" fill="#2E5D4D" stroke="#4C6746"/>
<path d="M74.8444 91.0385H125.156C134.822 91.0385 142.667 83.1988 142.667 73.5379C142.667 67.8747 139.933 62.5667 135.311 59.2798L102.067 35.6496C100.822 34.7835 99.1778 34.7835 97.9556 35.6496L64.6889 59.2798C60.0667 62.5667 57.3333 67.8747 57.3333 73.5379C57.3333 83.1988 65.1778 91.0385 74.8444 91.0385ZM149.778 155C157.622 155 164 148.626 164 140.786V91.0385C164 87.1075 160.822 83.9317 156.889 83.9317C152.956 83.9317 149.778 87.1075 149.778 91.0385V101.699H50.2222V91.0385C50.2222 87.1075 47.0444 83.9317 43.1111 83.9317C39.1778 83.9317 36 87.1075 36 91.0385V140.786C36 148.626 42.3778 155 50.2222 155H149.778ZM89.3333 126.573C89.3333 120.687 94.1111 115.912 100 115.912C105.889 115.912 110.667 120.687 110.667 126.573V144.34H89.3333V126.573Z" fill="white"/>
</svg>
